<svg width="64" height="64" viewBox="0 0 64 64" fill="none" xmlns="http://www.w3.org/2000/svg">
<path d="M36.0096 28.7819C34.6011 28.7819 33.4892 29.9927 33.4892 31.5C33.4892 33.0073 34.6258 34.2181 36.0096 34.2181C37.4181 34.2181 38.53 33.0073 38.53 31.5C38.53 29.9927 37.3933 28.7819 36.0096 28.7819V28.7819ZM26.9904 28.7819C25.5819 28.7819 24.47 29.9927 24.47 31.5C24.47 33.0073 25.6067 34.2181 26.9904 34.2181C28.3989 34.2181 29.5108 33.0073 29.5108 31.5C29.5356 29.9927 28.3989 28.7819 26.9904 28.7819Z" fill="black"/>
<path d="M48.0434 7H14.9319C12.1397 7 9.86636 9.27332 9.86636 12.0656V45.177C9.86636 47.9692 12.1397 50.2426 14.9319 50.2426H42.9531L41.6435 45.7206L44.8064 48.6364L47.7963 51.3792L53.1336 56V12.0656C53.1089 9.27332 50.8356 7 48.0434 7ZM38.5053 38.9995C38.5053 38.9995 37.6157 37.937 36.8744 37.0227C40.1114 36.1084 41.3469 34.1069 41.3469 34.1069C40.3338 34.7741 39.3701 35.2436 38.5053 35.5648C37.2698 36.0837 36.0837 36.4049 34.9223 36.6273C32.5502 37.0721 30.3757 36.9486 28.5224 36.6026C27.114 36.3308 25.9032 35.9602 24.8901 35.5401C24.3217 35.3177 23.704 35.0459 23.0862 34.7C23.0121 34.6505 22.938 34.6258 22.8638 34.5764C22.8144 34.5517 22.7897 34.527 22.765 34.527C22.3202 34.2799 22.0731 34.1069 22.0731 34.1069C22.0731 34.1069 23.2592 36.059 26.3974 36.998C25.6561 37.937 24.7418 39.0242 24.7418 39.0242C19.2809 38.8513 17.2052 35.293 17.2052 35.293C17.2052 27.4105 20.7635 21.0106 20.7635 21.0106C24.3217 18.3666 27.6823 18.4408 27.6823 18.4408L27.9294 18.7373C23.4816 19.9975 21.4554 21.9496 21.4554 21.9496C21.4554 21.9496 21.999 21.6531 22.9133 21.2577C25.5572 20.0963 27.6576 19.7998 28.5224 19.701C28.6707 19.6763 28.7943 19.6516 28.9425 19.6516C30.4498 19.4539 32.1548 19.4045 33.9339 19.6021C36.2814 19.8739 38.8018 20.5658 41.3717 21.9496C41.3717 21.9496 39.4196 20.0963 35.2189 18.8361L35.5648 18.4408C35.5648 18.4408 38.9501 18.3666 42.4836 21.0106C42.4836 21.0106 46.0418 27.4105 46.0418 35.293C46.0418 35.2683 43.9662 38.8265 38.5053 38.9995V38.9995Z" fill="black"/>
</svg>
